<?xml version="1.0" standalone="no"?>
<svg xmlns="http://www.w3.org/2000/svg" viewBox="0 0 126 68" width="126" height="68"><g fill="#e0b60c" color="#e0b60c" transform="translate(40.749 0) scale(0.44) "><svg width="100.0" height="100.0" x="0.0" y="0.0" viewBox="0 0 100 100"><g><path fill="currentColor" d="M35.42,37.492h28.812c1.302,0,2.359-1.038,2.359-2.312V19.903h-0.078L65.85,19.18H50.971H33.87   l-0.667,0.723h-0.145V35.18C33.059,36.454,34.119,37.492,35.42,37.492z"></path><path fill="currentColor" d="M97.72,49.163c-1.555-7.55-3.111-16.604-4.772-19.877c-1.665-3.273-3.222-6.33-3.222-6.33l-2.108-3.331   h-0.999v-1.111c0,0-2.223-1.666-5.777-1.666c-3.55,0-6.332,1.112-6.332,1.112v0.999c0,0-0.659,0-1.439,0.222   c-0.777,0.223-1.668,0.723-1.668,0.723h-4.126V35.18c0,1.642-1.365,2.978-3.043,2.978H35.42c-1.678,0-3.042-1.335-3.042-2.978   V19.903h-4.062c0,0-0.887-0.5-1.666-0.723c-0.779-0.222-1.444-0.222-1.444-0.222V17.96c0,0-2.775-1.112-6.329-1.112   c-3.554,0-5.773,1.666-5.773,1.666v1.111h-1l-2.111,3.331c0,0-1.556,3.056-3.219,6.33C5.11,32.559,3.554,41.613,1.999,49.163   C0.443,56.713,0,69.375,0,69.375s0.223,6.771,7.33,9.104c7.106,2.331,12.105-2.999,12.105-2.999l1.776-3.884l4.664-14.215   l1.888-0.556c0,0,2.887,2.112,6.664,1.997c3.777-0.109,6.884-2.552,6.884-2.552h9.662h7.441c0,0,3.107,2.442,6.883,2.552   c3.775,0.115,6.665-1.997,6.665-1.997l1.884,0.556l4.663,14.215l1.781,3.884c0,0,4.999,5.33,12.101,2.999   c7.107-2.333,7.332-9.104,7.332-9.104S99.276,56.713,97.72,49.163z M16.221,27.656c0-0.69,0.559-1.25,1.25-1.25h2.502   c0.691,0,1.25,0.56,1.25,1.25v2.503c0,0.691-1.811,2.821-2.502,2.821c-0.689,0-2.5-2.129-2.5-2.821V27.656z M12.003,36.651   c-0.691,0-1.25-0.56-1.25-1.251v-2.503c0-0.691,0.559-1.25,1.25-1.25h2.503c0.69,0,2.82,1.812,2.82,2.503   c0,0.689-2.13,2.501-2.82,2.501H12.003z M21.224,41.098c0,0.689-0.56,1.249-1.25,1.249h-2.502c-0.691,0-1.25-0.56-1.25-1.249   v-2.504c0-0.69,1.811-2.821,2.5-2.821c0.691,0,2.502,2.131,2.502,2.821V41.098z M26.692,35.4c0,0.691-0.56,1.251-1.249,1.251H22.94   c-0.69,0-2.822-1.812-2.822-2.501c0-0.691,2.132-2.503,2.822-2.503h2.503c0.689,0,1.249,0.56,1.249,1.25V35.4z M34.322,54.234   c-3.465,0-6.275-2.81-6.275-6.276c0-3.463,2.811-6.274,6.275-6.274c3.465,0,6.275,2.811,6.275,6.274   C40.597,51.425,37.788,54.234,34.322,54.234z M66.416,54.234c-3.466,0-6.277-2.81-6.277-6.276c0-3.463,2.812-6.274,6.277-6.274   c3.465,0,6.272,2.811,6.272,6.274C72.688,51.425,69.881,54.234,66.416,54.234z M74.078,36.856c-1.656,0-3-1.343-3-2.998   c0-1.658,1.344-3.001,3-3.001c1.655,0,3,1.343,3,3.001C77.078,35.513,75.733,36.856,74.078,36.856z M81.349,44.241   c-1.654,0-2.996-1.343-2.996-2.999c0-1.658,1.342-3,2.996-3c1.659,0,3.003,1.342,3.003,3   C84.352,42.898,83.008,44.241,81.349,44.241z M81.349,29.693c-1.654,0-2.996-1.343-2.996-2.998c0-1.658,1.342-3.001,2.996-3.001   c1.659,0,3.003,1.343,3.003,3.001C84.352,28.35,83.008,29.693,81.349,29.693z M88.627,36.856c-1.659,0-3.003-1.343-3.003-2.998   c0-1.658,1.344-3.001,3.003-3.001c1.656,0,2.999,1.343,2.999,3.001C91.626,35.513,90.283,36.856,88.627,36.856z"></path><path fill="currentColor" d="M77.078,33.858c0-1.658-1.345-3.001-3-3.001c-1.656,0-3,1.343-3,3.001"></path><path fill="currentColor" d="M21.224,41.098v-2.504c0-0.69-1.811-2.821-2.502-2.821c-0.689,0-2.5,2.131-2.5,2.821v2.504   c0,0.689,0.559,1.249,1.25,1.249"></path></g></svg></g><path fill="#000000" fill-rule="nonzero" d="M4.54 14.36L4.54 14.36Q4.54 13.97 4.51 13.35Q4.48 12.73 4.43 11.98Q4.38 11.23 4.32 10.38Q4.27 9.54 4.20 8.71Q4.13 7.88 4.06 7.10Q4.00 6.32 3.94 5.68L3.94 5.68Q3.84 4.78 3.68 4.36Q3.52 3.94 3.14 3.94L3.14 3.94Q2.79 3.94 2.68 4.14Q2.57 4.34 2.55 4.63Q2.53 4.92 2.54 5.27Q2.54 5.61 2.43 5.91Q2.32 6.20 2.02 6.40Q1.71 6.60 1.08 6.60L1.08 6.60Q0.63 6.60 0.32 6.23Q0 5.86 0 5.16L0 5.16Q0 4.17 0.58 3.37Q1.16 2.57 2.21 2.00Q3.27 1.43 4.76 1.11Q6.25 0.80 8.06 0.80L8.06 0.80Q9.36 0.80 10.46 1.08Q11.57 1.37 12.37 1.88Q13.17 2.39 13.63 3.09Q14.09 3.79 14.09 4.61L14.09 4.61Q14.09 5.53 13.55 6.38Q13.01 7.22 12.06 7.92Q11.12 8.63 9.84 9.15Q8.57 9.67 7.10 9.96L7.10 9.96Q6.69 10.03 6.69 10.46L6.69 10.46Q6.69 10.76 6.73 11.20Q6.77 11.64 6.81 12.12Q6.86 12.60 6.90 13.07Q6.94 13.54 6.94 13.90L6.94 13.90Q6.94 14.55 6.63 14.84Q6.33 15.12 5.73 15.12L5.73 15.12Q5.17 15.12 4.85 14.92Q4.54 14.73 4.54 14.36ZM11.66 4.95L11.66 4.95Q11.66 4.55 11.32 4.18Q10.98 3.82 10.41 3.54Q9.83 3.26 9.08 3.09Q8.32 2.93 7.49 2.93L7.49 2.93Q7.08 2.93 6.80 2.96Q6.53 2.99 6.36 3.06Q6.20 3.13 6.13 3.24Q6.07 3.35 6.07 3.53L6.07 3.53Q6.07 3.64 6.11 4.07Q6.14 4.50 6.20 5.06Q6.26 5.63 6.32 6.24Q6.39 6.86 6.46 7.35L6.46 7.35Q6.49 7.71 6.56 7.83Q6.62 7.95 6.76 7.95L6.76 7.95Q7.16 7.95 7.68 7.81Q8.19 7.68 8.74 7.45Q9.28 7.22 9.80 6.92Q10.32 6.62 10.74 6.29Q11.16 5.95 11.41 5.61Q11.66 5.26 11.66 4.95ZM18.16 4.13L18.16 4.13Q17.93 4.22 17.71 4.22L17.71 4.22Q17.14 4.22 16.93 3.55L16.93 3.55Q16.88 3.38 16.86 3.26Q16.84 3.14 16.84 3.05L16.84 3.05Q16.84 2.50 17.46 2.23L17.46 2.23Q18.69 1.73 19.97 1.43Q21.25 1.13 22.55 1.13L22.55 1.13Q23.16 1.13 23.75 1.25Q24.34 1.38 24.81 1.70Q25.28 2.02 25.57 2.54Q25.86 3.07 25.86 3.87L25.86 3.87Q25.86 4.43 25.63 4.95Q25.41 5.46 25.03 5.93Q24.66 6.40 24.18 6.82Q23.70 7.24 23.19 7.59Q22.69 7.95 22.20 8.23Q21.70 8.52 21.30 8.73L21.30 8.73Q20.96 8.93 20.96 9.14L20.96 9.14Q20.96 9.39 21.33 9.53L21.33 9.53Q22.58 9.97 23.89 10.36Q25.21 10.75 26.55 11.23L26.55 11.23Q27.19 11.46 27.19 11.95L27.19 11.95Q27.19 12.19 27.05 12.43Q26.92 12.67 26.75 12.87L26.75 12.87Q26.41 13.37 25.91 13.37L25.91 13.37Q25.73 13.37 25.48 13.30L25.48 13.30Q24.71 13.01 23.84 12.69Q22.97 12.38 22.06 12.06Q21.15 11.75 20.27 11.47Q19.39 11.18 18.64 10.95L18.64 10.95Q18.38 10.88 18.28 10.88L18.28 10.88Q18.19 10.88 18.13 10.92Q18.08 10.96 18.08 11.09L18.08 11.09Q18.08 11.12 18.09 11.17Q18.11 11.23 18.11 11.29L18.11 11.29Q18.14 11.46 18.19 11.75Q18.25 12.04 18.30 12.34Q18.35 12.64 18.39 12.92Q18.42 13.20 18.42 13.37L18.42 13.37Q18.42 14.03 17.71 14.29L17.71 14.29L17.18 14.45Q17.06 14.48 16.97 14.50Q16.88 14.52 16.77 14.52L16.77 14.52Q16.13 14.52 16.02 13.72L16.02 13.72Q15.74 11.59 15.30 9.52Q14.86 7.44 14.30 5.38L14.30 5.38Q14.26 5.26 14.26 5.17Q14.25 5.09 14.25 5.02L14.25 5.02Q14.25 4.39 14.92 4.17L14.92 4.17Q15.16 4.09 15.32 4.04Q15.48 4.00 15.58 3.97Q15.68 3.94 15.73 3.93Q15.79 3.91 15.83 3.91L15.83 3.91Q16.46 3.91 16.65 4.63L16.65 4.63Q16.90 5.54 17.12 6.40Q17.33 7.25 17.51 8.09L17.51 8.09Q17.60 8.50 17.85 8.50L17.85 8.50Q17.92 8.50 18.01 8.47Q18.11 8.44 18.23 8.38L18.23 8.38Q18.61 8.18 19.14 7.89Q19.68 7.59 20.26 7.24Q20.84 6.88 21.40 6.48Q21.97 6.08 22.42 5.68Q22.88 5.29 23.16 4.90Q23.44 4.51 23.44 4.17L23.44 4.17Q23.44 3.96 23.37 3.79Q23.31 3.61 23.13 3.48Q22.96 3.35 22.66 3.28Q22.36 3.21 21.90 3.21L21.90 3.21Q21.46 3.21 20.97 3.29Q20.48 3.36 20.00 3.49Q19.52 3.62 19.05 3.79Q18.59 3.95 18.16 4.13ZM32.94 14.47L32.94 14.47Q31.66 14.47 30.59 14.04Q29.52 13.61 28.75 12.83Q27.97 12.05 27.54 10.97Q27.11 9.89 27.11 8.59L27.11 8.59Q27.11 7.89 27.23 7.24Q27.35 6.59 27.56 6.02L27.56 6.02Q27.66 5.80 27.66 5.71L27.66 5.71Q27.66 5.59 27.60 5.48Q27.54 5.38 27.47 5.26Q27.40 5.14 27.34 5.02Q27.28 4.89 27.28 4.72L27.28 4.72Q27.28 4.23 27.84 3.76Q28.41 3.28 29.33 2.91Q30.26 2.54 31.43 2.31Q32.60 2.09 33.83 2.09L33.83 2.09Q35.34 2.09 36.56 2.47Q37.77 2.86 38.62 3.58Q39.47 4.30 39.93 5.33Q40.38 6.36 40.38 7.65L40.38 7.65Q40.38 9.09 39.81 10.34Q39.23 11.59 38.23 12.50Q37.23 13.42 35.87 13.95Q34.51 14.47 32.94 14.47ZM38.03 8.11L38.03 8.11Q38.03 7.20 37.71 6.47Q37.39 5.74 36.80 5.24Q36.20 4.75 35.33 4.48Q34.45 4.22 33.35 4.22L33.35 4.22Q31.42 4.22 30.44 5.20Q29.46 6.18 29.46 8.11L29.46 8.11Q29.46 9.05 29.75 9.83Q30.05 10.61 30.57 11.16Q31.10 11.72 31.83 12.03Q32.57 12.34 33.45 12.34L33.45 12.34Q34.45 12.34 35.30 12.03Q36.14 11.72 36.74 11.16Q37.35 10.59 37.69 9.81Q38.03 9.04 38.03 8.11ZM46.72 0.89L46.72 0.89Q46.97 0.74 47.23 0.68Q47.48 0.62 47.71 0.62L47.71 0.62Q48 0.62 48.23 0.72Q48.47 0.82 48.63 0.97Q48.80 1.13 48.88 1.32Q48.97 1.51 48.97 1.70L48.97 1.70Q48.97 1.96 48.80 2.19Q48.63 2.43 48.33 2.59L48.33 2.59Q47.72 2.94 47.31 3.19Q46.90 3.43 46.61 3.63Q46.32 3.83 46.11 4.01Q45.90 4.18 45.69 4.39L45.69 4.39Q45.39 4.68 45.11 5.04Q44.82 5.40 44.61 5.76Q44.39 6.12 44.26 6.45Q44.12 6.77 44.12 6.98L44.12 6.98Q44.12 7.16 44.21 7.27Q44.31 7.37 44.48 7.37L44.48 7.37Q44.67 7.37 44.89 7.24L44.89 7.24Q45.61 6.84 46.40 6.53Q47.19 6.21 48 5.99Q48.81 5.77 49.62 5.65Q50.43 5.54 51.19 5.54L51.19 5.54Q52.39 5.54 53.40 5.81Q54.41 6.07 55.14 6.54Q55.86 7.01 56.26 7.67Q56.66 8.33 56.66 9.12L56.66 9.12Q56.66 10.00 56.16 10.80Q55.65 11.61 54.77 12.22Q53.89 12.83 52.70 13.20Q51.50 13.56 50.12 13.56L50.12 13.56Q48.28 13.56 46.75 13.18Q45.22 12.80 44.13 12.12Q43.03 11.44 42.43 10.49Q41.82 9.55 41.82 8.43L41.82 8.43Q41.82 7.31 42.13 6.24Q42.45 5.17 43.06 4.20Q43.68 3.23 44.59 2.40Q45.50 1.56 46.72 0.89ZM54.30 9.53L54.30 9.53Q54.30 9.13 54.05 8.80Q53.80 8.47 53.35 8.24Q52.90 8.00 52.26 7.88Q51.62 7.75 50.85 7.75L50.85 7.75Q49.38 7.75 47.98 8.15Q46.58 8.55 45.35 9.32L45.35 9.32Q45.06 9.50 45.06 9.77L45.06 9.77Q45.06 9.96 45.27 10.15Q45.48 10.35 45.84 10.52Q46.21 10.70 46.70 10.86Q47.19 11.03 47.74 11.14Q48.29 11.26 48.88 11.33Q49.46 11.40 50.03 11.40L50.03 11.40Q50.93 11.40 51.71 11.26Q52.49 11.11 53.07 10.86Q53.65 10.61 53.98 10.27Q54.30 9.93 54.30 9.53ZM56.92 10.68L56.77 10.68Q56.57 10.68 56.47 10.48Q56.37 10.28 56.37 9.91L56.37 9.91Q56.37 9.86 56.37 9.78Q56.37 9.70 56.39 9.48L56.39 9.48Q56.43 8.64 57.22 8.50L57.22 8.50L57.49 8.47Q57.76 8.44 57.91 8.30Q58.07 8.17 58.14 7.92L58.14 7.92Q58.34 7.25 58.54 6.57Q58.73 5.89 58.96 5.23L58.96 5.23Q59.07 4.85 59.20 4.42Q59.32 4.00 59.47 3.57Q59.61 3.15 59.81 2.74Q60 2.33 60.25 1.99L60.25 1.99Q60.35 1.85 60.54 1.70Q60.73 1.55 60.97 1.42Q61.21 1.30 61.48 1.22Q61.76 1.15 62.03 1.15L62.03 1.15Q62.38 1.15 62.72 1.37L62.72 1.37Q63.18 1.69 63.62 2.13Q64.07 2.58 64.62 3.27Q65.17 3.96 65.89 4.94Q66.62 5.92 67.64 7.30L67.64 7.30Q67.79 7.48 67.96 7.56Q68.13 7.65 68.37 7.65L68.37 7.65L69.04 7.65Q69.45 7.65 69.67 7.85Q69.90 8.04 69.90 8.38L69.90 8.38Q69.90 8.45 69.90 8.54Q69.89 8.64 69.86 8.73L69.86 8.73L69.63 9.39Q69.61 9.48 69.60 9.55Q69.59 9.62 69.59 9.69L69.59 9.69Q69.59 9.94 69.75 10.20L69.75 10.20L71.00 11.91Q71.21 12.22 71.21 12.50L71.21 12.50Q71.21 12.93 70.73 13.24L70.73 13.24L70.29 13.56Q70.13 13.66 69.98 13.72Q69.83 13.78 69.68 13.78L69.68 13.78Q69.47 13.78 69.29 13.66Q69.11 13.54 68.94 13.32L68.94 13.32Q68.38 12.53 67.81 11.75Q67.24 10.98 66.66 10.22L66.66 10.22Q66.39 9.84 65.94 9.84L65.94 9.84Q64.51 9.90 63.11 10.00Q61.71 10.10 60.30 10.24L60.30 10.24Q59.80 10.29 59.67 10.78L59.67 10.78L59.14 12.71Q58.93 13.49 58.21 13.49L58.21 13.49L58.02 13.49L57.66 13.44Q57.26 13.41 57.05 13.20Q56.85 12.98 56.85 12.64L56.85 12.64Q56.85 12.57 56.86 12.49Q56.87 12.41 56.89 12.32L56.89 12.32Q56.95 12.08 57.02 11.84Q57.08 11.59 57.15 11.36L57.15 11.36Q57.18 11.26 57.19 11.19Q57.20 11.11 57.20 11.04L57.20 11.04Q57.20 10.68 56.92 10.68L56.92 10.68ZM62.34 4.49L62.34 4.49Q62.23 4.38 62.13 4.31Q62.04 4.24 61.93 4.24L61.93 4.24Q61.64 4.24 61.52 4.65L61.52 4.65Q61.29 5.34 61.07 6.02Q60.86 6.69 60.63 7.39L60.63 7.39Q60.61 7.45 60.61 7.50Q60.61 7.55 60.61 7.61L60.61 7.61Q60.61 8.04 61.07 8.04L61.07 8.04L61.18 8.04Q61.89 7.95 62.59 7.89Q63.29 7.84 64.00 7.80L64.00 7.80Q64.23 7.78 64.37 7.68Q64.50 7.58 64.50 7.42L64.50 7.42Q64.50 7.27 64.36 7.05L64.36 7.05Q63.87 6.40 63.37 5.76Q62.87 5.12 62.34 4.49ZM82.52 6.62L82.52 6.62Q82.38 6.62 82.28 6.84L82.28 6.84Q81.83 7.71 81.33 8.41Q80.84 9.12 80.33 9.61Q79.83 10.10 79.34 10.37Q78.84 10.63 78.41 10.63L78.41 10.63Q77.99 10.63 77.63 10.45Q77.27 10.27 76.86 9.76Q76.44 9.26 75.91 8.37Q75.38 7.48 74.60 6.05L74.60 6.05Q74.47 5.81 74.34 5.70Q74.20 5.59 74.10 5.59L74.10 5.59Q73.95 5.59 73.82 5.91Q73.69 6.23 73.59 6.81Q73.50 7.39 73.45 8.21Q73.39 9.02 73.39 10.01L73.39 10.01Q73.39 10.59 73.46 11.18Q73.52 11.77 73.52 12.39L73.52 12.39Q73.52 12.60 73.41 12.78Q73.29 12.96 73.10 13.10Q72.90 13.23 72.64 13.31Q72.38 13.39 72.08 13.39L72.08 13.39Q71.50 13.39 71.24 12.69Q70.98 11.99 70.98 10.44L70.98 10.44Q70.98 8.48 71.20 6.88Q71.41 5.29 71.82 4.14Q72.22 3 72.78 2.37Q73.34 1.75 74.03 1.75L74.03 1.75Q74.64 1.75 75.19 2.44Q75.75 3.14 76.39 4.70L76.39 4.70Q76.65 5.33 76.95 5.88Q77.25 6.43 77.55 6.84Q77.85 7.24 78.13 7.47Q78.41 7.70 78.63 7.70L78.63 7.70Q78.86 7.70 79.06 7.60Q79.27 7.50 79.53 7.17Q79.79 6.83 80.15 6.19Q80.51 5.54 81.04 4.46L81.04 4.46Q81.32 3.90 81.54 3.53Q81.76 3.15 81.98 2.92Q82.21 2.70 82.45 2.60Q82.70 2.50 83.00 2.50L83.00 2.50Q83.37 2.50 83.72 2.88Q84.07 3.27 84.40 3.91Q84.74 4.56 85.05 5.41Q85.37 6.27 85.67 7.21Q85.97 8.14 86.26 9.11Q86.54 10.08 86.81 10.95L86.81 10.95Q86.88 11.20 86.91 11.30Q86.94 11.40 86.94 11.54L86.94 11.54Q86.94 11.74 86.82 11.94Q86.70 12.13 86.50 12.28Q86.30 12.43 86.04 12.53Q85.79 12.62 85.55 12.62L85.55 12.62Q85.22 12.62 85.04 12.54Q84.86 12.47 84.75 12.27L84.75 12.27Q84.69 12.16 84.55 11.71Q84.41 11.25 84.22 10.62Q84.02 10.00 83.79 9.29Q83.57 8.59 83.34 8.00Q83.11 7.41 82.90 7.01Q82.69 6.62 82.52 6.62ZM88.71 10.13L88.71 10.13Q88.68 10.13 88.60 10.14Q88.52 10.15 88.44 10.16Q88.35 10.17 88.27 10.18Q88.18 10.20 88.14 10.20L88.14 10.20Q87.81 10.20 87.56 9.92Q87.32 9.64 87.32 9.19L87.32 9.19Q87.32 8.88 87.52 8.60Q87.71 8.32 88.14 8.13L88.14 8.13Q88.27 8.07 88.34 8.00Q88.42 7.92 88.42 7.78L88.42 7.78Q88.42 7.41 88.40 6.98Q88.38 6.55 88.35 5.98L88.35 5.98Q88.34 5.86 88.27 5.75Q88.21 5.65 88.13 5.51Q88.05 5.38 88.00 5.21Q87.94 5.05 87.94 4.80L87.94 4.80Q87.94 4.58 88.00 4.29Q88.07 4.01 88.27 3.76Q88.48 3.50 88.85 3.33Q89.21 3.16 89.81 3.16L89.81 3.16Q90.06 3.16 90.22 3.21Q90.39 3.26 90.51 3.32Q90.63 3.39 90.73 3.43Q90.83 3.48 90.94 3.48L90.94 3.48Q91.13 3.48 91.69 3.41Q92.25 3.34 93.04 3.21Q93.83 3.08 94.79 2.92Q95.74 2.75 96.73 2.56Q97.71 2.37 98.65 2.17Q99.59 1.97 100.35 1.78L100.35 1.78Q100.58 1.72 100.76 1.72L100.76 1.72Q101.00 1.72 101.15 1.83Q101.30 1.95 101.37 2.11Q101.44 2.27 101.46 2.48Q101.47 2.68 101.47 2.86L101.47 2.86Q101.47 3.16 101.27 3.43Q101.06 3.69 100.59 3.84L100.59 3.84Q99.43 4.18 98.26 4.44Q97.08 4.69 95.88 4.89Q94.69 5.10 93.48 5.26Q92.27 5.43 91.08 5.59L91.08 5.59Q90.91 5.61 90.83 5.71Q90.75 5.81 90.75 5.98L90.75 5.98L90.75 6.46Q90.75 6.66 90.76 6.87Q90.77 7.08 90.81 7.25Q90.86 7.43 90.93 7.54Q91.00 7.65 91.11 7.65L91.11 7.65Q91.39 7.65 91.99 7.54Q92.58 7.42 93.32 7.25Q94.07 7.08 94.88 6.87Q95.70 6.67 96.42 6.50Q97.15 6.33 97.70 6.21Q98.25 6.09 98.47 6.09L98.47 6.09Q98.80 6.09 98.97 6.33Q99.14 6.57 99.20 6.94L99.20 6.94Q99.20 7.00 99.21 7.04Q99.22 7.09 99.22 7.15L99.22 7.15Q99.22 7.49 99.02 7.78Q98.81 8.06 98.29 8.20L98.29 8.20Q98.14 8.25 97.72 8.35Q97.30 8.45 96.73 8.58Q96.15 8.72 95.48 8.87Q94.82 9.02 94.17 9.17Q93.53 9.32 92.97 9.45Q92.41 9.59 92.06 9.67L92.06 9.67Q91.75 9.75 91.68 9.80Q91.62 9.84 91.62 9.91L91.62 9.91Q91.64 10.17 91.88 10.39Q92.12 10.62 92.49 10.80Q92.86 10.99 93.32 11.14Q93.79 11.30 94.28 11.40Q94.78 11.50 95.26 11.55Q95.74 11.61 96.15 11.61L96.15 11.61Q96.33 11.61 96.66 11.61Q96.98 11.61 97.38 11.60Q97.77 11.58 98.19 11.54Q98.60 11.51 98.94 11.44Q99.27 11.38 99.49 11.28Q99.70 11.18 99.70 11.04L99.70 11.04Q99.70 10.91 99.62 10.77Q99.53 10.63 99.53 10.46L99.53 10.46Q99.53 10.23 99.66 10.00Q99.79 9.77 99.99 9.59Q100.20 9.41 100.46 9.30Q100.72 9.19 100.99 9.19L100.99 9.19Q101.33 9.19 101.61 9.32Q101.89 9.46 102.10 9.67Q102.30 9.89 102.42 10.17Q102.53 10.45 102.53 10.75L102.53 10.75Q102.53 11.52 101.96 12.08Q101.39 12.64 100.48 13.01Q99.56 13.38 98.41 13.56Q97.27 13.75 96.11 13.75L96.11 13.75Q94.75 13.75 93.62 13.56Q92.50 13.38 91.61 12.98Q90.71 12.59 90.07 11.95Q89.43 11.31 89.02 10.39L89.02 10.39Q88.88 10.13 88.71 10.13ZM106.09 4.13L106.09 4.13Q105.86 4.22 105.63 4.22L105.63 4.22Q105.07 4.22 104.86 3.55L104.86 3.55Q104.80 3.38 104.78 3.26Q104.77 3.14 104.77 3.05L104.77 3.05Q104.77 2.50 105.39 2.23L105.39 2.23Q106.62 1.73 107.89 1.43Q109.17 1.13 110.47 1.13L110.47 1.13Q111.08 1.13 111.67 1.25Q112.27 1.38 112.73 1.70Q113.20 2.02 113.50 2.54Q113.79 3.07 113.79 3.87L113.79 3.87Q113.79 4.43 113.56 4.95Q113.33 5.46 112.96 5.93Q112.58 6.40 112.10 6.82Q111.62 7.24 111.12 7.59Q110.61 7.95 110.12 8.23Q109.63 8.52 109.23 8.73L109.23 8.73Q108.89 8.93 108.89 9.14L108.89 9.14Q108.89 9.39 109.25 9.53L109.25 9.53Q110.51 9.97 111.82 10.36Q113.13 10.75 114.48 11.23L114.48 11.23Q115.11 11.46 115.11 11.95L115.11 11.95Q115.11 12.19 114.98 12.43Q114.84 12.67 114.68 12.87L114.68 12.87Q114.34 13.37 113.84 13.37L113.84 13.37Q113.66 13.37 113.40 13.30L113.40 13.30Q112.64 13.01 111.77 12.69Q110.89 12.38 109.99 12.06Q109.08 11.75 108.20 11.47Q107.32 11.18 106.57 10.95L106.57 10.95Q106.30 10.88 106.21 10.88L106.21 10.88Q106.11 10.88 106.06 10.92Q106.01 10.96 106.01 11.09L106.01 11.09Q106.01 11.12 106.02 11.17Q106.03 11.23 106.03 11.29L106.03 11.29Q106.07 11.46 106.12 11.75Q106.17 12.04 106.22 12.34Q106.28 12.64 106.31 12.92Q106.35 13.20 106.35 13.37L106.35 13.37Q106.35 14.03 105.63 14.29L105.63 14.29L105.11 14.45Q104.99 14.48 104.89 14.50Q104.80 14.52 104.70 14.52L104.70 14.52Q104.05 14.52 103.95 13.72L103.95 13.72Q103.66 11.59 103.22 9.52Q102.79 7.44 102.22 5.38L102.22 5.38Q102.19 5.26 102.18 5.17Q102.18 5.09 102.18 5.02L102.18 5.02Q102.18 4.39 102.84 4.17L102.84 4.17Q103.09 4.09 103.25 4.04Q103.41 4.00 103.51 3.97Q103.61 3.94 103.66 3.93Q103.71 3.91 103.76 3.91L103.76 3.91Q104.39 3.91 104.58 4.63L104.58 4.63Q104.82 5.54 105.04 6.40Q105.26 7.25 105.43 8.09L105.43 8.09Q105.53 8.50 105.77 8.50L105.77 8.50Q105.84 8.50 105.94 8.47Q106.03 8.44 106.16 8.38L106.16 8.38Q106.54 8.18 107.07 7.89Q107.60 7.59 108.18 7.24Q108.76 6.88 109.33 6.48Q109.90 6.08 110.35 5.68Q110.80 5.29 111.08 4.90Q111.36 4.51 111.36 4.17L111.36 4.17Q111.36 3.96 111.30 3.79Q111.23 3.61 111.06 3.48Q110.88 3.35 110.58 3.28Q110.29 3.21 109.83 3.21L109.83 3.21Q109.38 3.21 108.90 3.29Q108.41 3.36 107.93 3.49Q107.45 3.62 106.98 3.79Q106.51 3.95 106.09 4.13ZM117.68 8.20L117.68 8.20Q117.68 8.91 118.03 9.51Q118.37 10.11 118.93 10.56Q119.50 11.02 120.22 11.27Q120.95 11.52 121.71 11.52L121.71 11.52Q121.95 11.52 122.19 11.48Q122.44 11.44 122.64 11.33Q122.84 11.23 122.96 11.06Q123.09 10.89 123.09 10.63L123.09 10.63Q123.09 10.14 122.75 9.66Q122.40 9.18 121.84 8.70Q121.28 8.23 120.55 7.75Q119.82 7.28 119.07 6.81Q118.32 6.34 117.60 5.87Q116.87 5.39 116.31 4.92Q115.75 4.44 115.40 3.96Q115.05 3.47 115.05 2.98L115.05 2.98Q115.05 2.51 115.29 2.10Q115.54 1.70 115.93 1.37Q116.33 1.04 116.86 0.79Q117.39 0.53 117.96 0.35Q118.54 0.18 119.12 0.09Q119.70 0 120.22 0L120.22 0Q120.61 0 121.07 0.02Q121.54 0.04 121.94 0.12Q122.34 0.21 122.61 0.39Q122.88 0.56 122.88 0.89L122.88 0.89Q122.88 1.00 122.85 1.15Q122.81 1.31 122.65 1.68L122.65 1.68Q122.48 2.02 122.27 2.19Q122.05 2.36 121.71 2.36L121.71 2.36Q121.23 2.36 120.70 2.24Q120.16 2.13 119.63 2.13L119.63 2.13Q119.33 2.13 119.03 2.16Q118.73 2.19 118.49 2.27Q118.24 2.34 118.09 2.49Q117.94 2.64 117.94 2.86L117.94 2.86Q117.94 3.08 118.26 3.36Q118.58 3.64 119.12 3.98Q119.65 4.32 120.33 4.73Q121.01 5.13 121.72 5.60Q122.43 6.06 123.11 6.58Q123.79 7.10 124.32 7.68Q124.85 8.26 125.17 8.91Q125.50 9.55 125.50 10.24L125.50 10.24Q125.50 11.09 125.11 11.73Q124.72 12.38 124.11 12.81Q123.50 13.24 122.77 13.46Q122.03 13.68 121.32 13.68L121.32 13.68Q120.61 13.68 119.88 13.51Q119.14 13.34 118.46 13.03Q117.79 12.71 117.19 12.28Q116.60 11.84 116.17 11.29Q115.73 10.75 115.48 10.11Q115.23 9.48 115.23 8.79L115.23 8.79Q115.23 8.50 115.27 8.20Q115.31 7.90 115.42 7.67Q115.52 7.44 115.71 7.29Q115.90 7.15 116.19 7.15L116.19 7.15Q116.29 7.15 116.40 7.17Q116.52 7.18 116.81 7.28L116.81 7.28Q117.15 7.38 117.42 7.61Q117.68 7.84 117.68 8.20Z" transform="translate(0, 52)"></path></svg>